<?xml version="1.0" encoding="utf-8"?>
<svg xmlns="http://www.w3.org/2000/svg" style="margin: auto; background: none; display: block; shape-rendering: auto;" width="280" height="139" preserveAspectRatio="xMidYMid">
<style type="text/css">
  text {
    text-anchor: middle; font-size: 29px; opacity: 0;
  }
</style>
<g style="transform-origin:140px 69.5px;transform:scale(1)">
<g transform="translate(140,69.5)">
  <g transform="translate(0,0)"><g class="path" style="opacity: 1; transform-origin: -76.15px -2.21247px; animation: 1s linear -0.586667s infinite normal forwards running fade-2f243dbf-abc6-4e7d-9773-76b372d05cea;"><path d="M7.93-7.62L7.93 0L2.31 0L2.31-20.39L13.32-20.39L13.32-20.39Q14.75-20.39 16.06-20.01L16.06-20.01L16.06-20.01Q17.37-19.63 18.38-18.85L18.38-18.85L18.38-18.85Q19.39-18.08 19.99-16.91L19.99-16.91L19.99-16.91Q20.59-15.75 20.59-14.17L20.59-14.17L20.59-14.17Q20.59-13.18 20.31-12.31L20.31-12.31L20.31-12.31Q20.02-11.44 19.52-10.72L19.52-10.72L19.52-10.72Q19.02-10.00 18.34-9.42L18.34-9.42L18.34-9.42Q17.66-8.84 16.85-8.44L16.85-8.44L16.85-8.44Q16.04-8.04 15.14-7.83L15.14-7.83L15.14-7.83Q14.25-7.62 13.32-7.62L13.32-7.62L7.93-7.62zM14.90-14.17L14.90-14.17L14.90-14.17Q14.90-16.14 13.90-17.27L13.90-17.27L13.90-17.27Q12.90-18.39 10.89-18.39L10.89-18.39L7.93-18.39L7.93-9.54L10.89-9.54L10.89-9.54Q11.97-9.54 12.72-9.89L12.72-9.89L12.72-9.89Q13.48-10.24 13.96-10.86L13.96-10.86L13.96-10.86Q14.44-11.48 14.67-12.33L14.67-12.33L14.67-12.33Q14.90-13.17 14.90-14.17" fill="#420457" stroke="none" stroke-width="none" transform="translate(-87.60000610351562,7.982531941731767)" style="fill: rgb(66, 4, 87);"></path></g><g class="path" style="opacity: 1; transform-origin: -54px -2.24747px; animation: 1s linear -0.513333s infinite normal forwards running fade-2f243dbf-abc6-4e7d-9773-76b372d05cea;"><path d="M44.80-10.22L44.80-10.22L44.80-10.22Q44.80-7.76 43.95-5.78L43.95-5.78L43.95-5.78Q43.10-3.81 41.60-2.44L41.60-2.44L41.60-2.44Q40.10-1.06 38.05-0.33L38.05-0.33L38.05-0.33Q36.00 0.41 33.60 0.41L33.60 0.41L33.60 0.41Q31.21 0.41 29.16-0.33L29.16-0.33L29.16-0.33Q27.10-1.06 25.60-2.44L25.60-2.44L25.60-2.44Q24.10-3.81 23.25-5.78L23.25-5.78L23.25-5.78Q22.40-7.76 22.40-10.22L22.40-10.22L22.40-10.22Q22.40-12.73 23.24-14.71L23.24-14.71L23.24-14.71Q24.09-16.68 25.58-18.05L25.58-18.05L25.58-18.05Q27.07-19.41 29.13-20.14L29.13-20.14L29.13-20.14Q31.18-20.87 33.60-20.87L33.60-20.87L33.60-20.87Q36.02-20.87 38.08-20.14L38.08-20.14L38.08-20.14Q40.13-19.41 41.62-18.05L41.62-18.05L41.62-18.05Q43.12-16.68 43.96-14.71L43.96-14.71L43.96-14.71Q44.80-12.73 44.80-10.22zM39.08-10.22L39.08-10.22L39.08-10.22Q39.08-11.16 39.00-12.14L39.00-12.14L39.00-12.14Q38.91-13.11 38.69-14.03L38.69-14.03L38.69-14.03Q38.46-14.95 38.07-15.76L38.07-15.76L38.07-15.76Q37.68-16.57 37.07-17.17L37.07-17.17L37.07-17.17Q36.46-17.77 35.61-18.12L35.61-18.12L35.61-18.12Q34.75-18.46 33.60-18.46L33.60-18.46L33.60-18.46Q32.44-18.46 31.58-18.12L31.58-18.12L31.58-18.12Q30.71-17.77 30.10-17.18L30.10-17.18L30.10-17.18Q29.50-16.58 29.11-15.77L29.11-15.77L29.11-15.77Q28.73-14.97 28.51-14.05L28.51-14.05L28.51-14.05Q28.29-13.14 28.21-12.16L28.21-12.16L28.21-12.16Q28.12-11.17 28.12-10.22L28.12-10.22L28.12-10.22Q28.12-9.29 28.21-8.31L28.21-8.31L28.21-8.31Q28.29-7.33 28.52-6.42L28.52-6.42L28.52-6.42Q28.75-5.51 29.13-4.70L29.13-4.70L29.13-4.70Q29.52-3.89 30.13-3.29L30.13-3.29L30.13-3.29Q30.74-2.69 31.60-2.34L31.60-2.34L31.60-2.34Q32.46-1.98 33.60-1.98L33.60-1.98L33.60-1.98Q34.72-1.98 35.56-2.34L35.56-2.34L35.56-2.34Q36.39-2.70 37.00-3.32L37.00-3.32L37.00-3.32Q37.61-3.94 38.01-4.75L38.01-4.75L38.01-4.75Q38.42-5.56 38.65-6.48L38.65-6.48L38.65-6.48Q38.88-7.39 38.98-8.35L38.98-8.35L38.98-8.35Q39.08-9.32 39.08-10.22" fill="#420457" stroke="none" stroke-width="none" transform="translate(-87.60000610351562,7.982531941731767)" style="fill: rgb(90, 63, 170);"></path></g><g class="path" style="opacity: 1; transform-origin: -30.16px -2.21247px; animation: 1s linear -0.44s infinite normal forwards running fade-2f243dbf-abc6-4e7d-9773-76b372d05cea;"><path d="M53.92-7.62L53.92 0L48.30 0L48.30-20.39L58.33-20.39L58.33-20.39Q59.74-20.39 61.06-20.06L61.06-20.06L61.06-20.06Q62.38-19.73 63.39-19.01L63.39-19.01L63.39-19.01Q64.40-18.29 65.00-17.16L65.00-17.16L65.00-17.16Q65.60-16.03 65.60-14.42L65.60-14.42L65.60-14.42Q65.60-13.15 65.07-12.04L65.07-12.04L65.07-12.04Q64.54-10.93 63.66-10.06L63.66-10.06L63.66-10.06Q62.77-9.19 61.63-8.62L61.63-8.62L61.63-8.62Q60.48-8.04 59.25-7.86L59.25-7.86L59.25-7.86Q59.80-6.92 60.40-6.09L60.40-6.09L60.40-6.09Q61.00-5.25 61.62-4.52L61.62-4.52L61.62-4.52Q62.23-3.79 62.84-3.18L62.84-3.18L62.84-3.18Q63.45-2.56 64.00-2.05L64.00-2.05L64.00-2.05Q65.31-0.86 66.58 0L66.58 0L59.57 0L59.57 0Q58.72-0.81 57.96-1.94L57.96-1.94L57.96-1.94Q57.31-2.90 56.65-4.33L56.65-4.33L56.65-4.33Q55.99-5.75 55.64-7.62L55.64-7.62L53.92-7.62zM59.90-14.42L59.90-14.42L59.90-14.42Q59.90-16.47 58.90-17.43L58.90-17.43L58.90-17.43Q57.90-18.39 55.90-18.39L55.90-18.39L53.92-18.39L53.92-9.54L55.90-9.54L55.90-9.54Q56.97-9.54 57.72-9.95L57.72-9.95L57.72-9.95Q58.48-10.35 58.96-11.02L58.96-11.02L58.96-11.02Q59.44-11.70 59.67-12.57L59.67-12.57L59.67-12.57Q59.90-13.45 59.90-14.42" fill="#420457" stroke="none" stroke-width="none" transform="translate(-87.60000610351562,7.982531941731767)" style="fill: rgb(112, 138, 220);"></path></g><g class="path" style="opacity: 1; transform-origin: -12.15px -2.21247px; animation: 1s linear -0.366667s infinite normal forwards running fade-2f243dbf-abc6-4e7d-9773-76b372d05cea;"><path d="M78.26-17.79L78.26 0L72.64 0L72.64-17.79L67.09-17.79L67.09-20.39L83.81-20.39L83.81-17.79L78.26-17.79" fill="#420457" stroke="none" stroke-width="none" transform="translate(-87.60000610351562,7.982531941731767)" style="fill: rgb(176, 214, 249);"></path></g><g class="path" style="opacity: 1; transform-origin: 6.41px -2.21247px; animation: 1s linear -0.293333s infinite normal forwards running fade-2f243dbf-abc6-4e7d-9773-76b372d05cea;"><path d="M92.31-8.89L92.31 0L86.69 0L86.69-20.39L101.33-20.39L101.33-17.79L92.31-17.79L92.31-11.48L99.28-11.48L99.28-8.89L92.31-8.89" fill="#420457" stroke="none" stroke-width="none" transform="translate(-87.60000610351562,7.982531941731767)" style="fill: rgb(232, 250, 255);"></path></g><g class="path" style="opacity: 1; transform-origin: 26.4px -2.24747px; animation: 1s linear -0.22s infinite normal forwards running fade-2f243dbf-abc6-4e7d-9773-76b372d05cea;"><path d="M125.20-10.22L125.20-10.22L125.20-10.22Q125.20-7.76 124.35-5.78L124.35-5.78L124.35-5.78Q123.50-3.81 122.00-2.44L122.00-2.44L122.00-2.44Q120.50-1.06 118.45-0.33L118.45-0.33L118.45-0.33Q116.40 0.41 114.00 0.41L114.00 0.41L114.00 0.41Q111.61 0.41 109.56-0.33L109.56-0.33L109.56-0.33Q107.50-1.06 106.00-2.44L106.00-2.44L106.00-2.44Q104.50-3.81 103.65-5.78L103.65-5.78L103.65-5.78Q102.80-7.76 102.80-10.22L102.80-10.22L102.80-10.22Q102.80-12.73 103.65-14.71L103.65-14.71L103.65-14.71Q104.49-16.68 105.98-18.05L105.98-18.05L105.98-18.05Q107.48-19.41 109.53-20.14L109.53-20.14L109.53-20.14Q111.58-20.87 114.00-20.87L114.00-20.87L114.00-20.87Q116.42-20.87 118.48-20.14L118.48-20.14L118.48-20.14Q120.53-19.41 122.03-18.05L122.03-18.05L122.03-18.05Q123.52-16.68 124.36-14.71L124.36-14.71L124.36-14.71Q125.20-12.73 125.20-10.22zM119.48-10.22L119.48-10.22L119.48-10.22Q119.48-11.16 119.40-12.14L119.40-12.14L119.40-12.14Q119.31-13.11 119.09-14.03L119.09-14.03L119.09-14.03Q118.86-14.95 118.47-15.76L118.47-15.76L118.47-15.76Q118.08-16.57 117.47-17.17L117.47-17.17L117.47-17.17Q116.86-17.77 116.01-18.12L116.01-18.12L116.01-18.12Q115.15-18.46 114.00-18.46L114.00-18.46L114.00-18.46Q112.84-18.46 111.98-18.12L111.98-18.12L111.98-18.12Q111.11-17.77 110.51-17.18L110.51-17.18L110.51-17.18Q109.90-16.58 109.51-15.77L109.51-15.77L109.51-15.77Q109.13-14.97 108.91-14.05L108.91-14.05L108.91-14.05Q108.69-13.14 108.61-12.16L108.61-12.16L108.61-12.16Q108.52-11.17 108.52-10.22L108.52-10.22L108.52-10.22Q108.52-9.29 108.61-8.31L108.61-8.31L108.61-8.31Q108.69-7.33 108.92-6.42L108.92-6.42L108.92-6.42Q109.15-5.51 109.54-4.70L109.54-4.70L109.54-4.70Q109.93-3.89 110.53-3.29L110.53-3.29L110.53-3.29Q111.14-2.69 112.00-2.34L112.00-2.34L112.00-2.34Q112.86-1.98 114.00-1.98L114.00-1.98L114.00-1.98Q115.12-1.98 115.96-2.34L115.96-2.34L115.96-2.34Q116.79-2.70 117.40-3.32L117.40-3.32L117.40-3.32Q118.01-3.94 118.41-4.75L118.41-4.75L118.41-4.75Q118.82-5.56 119.05-6.48L119.05-6.48L119.05-6.48Q119.29-7.39 119.38-8.35L119.38-8.35L119.38-8.35Q119.48-9.32 119.48-10.22" fill="#420457" stroke="none" stroke-width="none" transform="translate(-87.60000610351562,7.982531941731767)" style="fill: rgb(66, 4, 87);"></path></g><g class="path" style="opacity: 1; transform-origin: 48.42px -2.21247px; animation: 1s linear -0.146667s infinite normal forwards running fade-2f243dbf-abc6-4e7d-9773-76b372d05cea;"><path d="M143.34-2.59L143.34 0L128.70 0L128.70-20.39L134.32-20.39L134.32-2.59L143.34-2.59" fill="#420457" stroke="none" stroke-width="none" transform="translate(-87.60000610351562,7.982531941731767)" style="fill: rgb(90, 63, 170);"></path></g><g class="path" style="opacity: 1; transform-origin: 61.2px -2.21247px; animation: 1s linear -0.0733333s infinite normal forwards running fade-2f243dbf-abc6-4e7d-9773-76b372d05cea;"><path d="M151.61-20.39L151.61 0L145.99 0L145.99-20.39L151.61-20.39" fill="#420457" stroke="none" stroke-width="none" transform="translate(-87.60000610351562,7.982531941731767)" style="fill: rgb(112, 138, 220);"></path></g><g class="path" style="opacity: 1; transform-origin: 78.71px -2.24747px; animation: 1s linear 0s infinite normal forwards running fade-2f243dbf-abc6-4e7d-9773-76b372d05cea;"><path d="M177.51-10.22L177.51-10.22L177.51-10.22Q177.51-7.76 176.66-5.78L176.66-5.78L176.66-5.78Q175.81-3.81 174.31-2.44L174.31-2.44L174.31-2.44Q172.81-1.06 170.76-0.33L170.76-0.33L170.76-0.33Q168.70 0.41 166.31 0.41L166.31 0.41L166.31 0.41Q163.92 0.41 161.86-0.33L161.86-0.33L161.86-0.33Q159.81-1.06 158.31-2.44L158.31-2.44L158.31-2.44Q156.81-3.81 155.96-5.78L155.96-5.78L155.96-5.78Q155.11-7.76 155.11-10.22L155.11-10.22L155.11-10.22Q155.11-12.73 155.95-14.71L155.95-14.71L155.95-14.71Q156.80-16.68 158.29-18.05L158.29-18.05L158.29-18.05Q159.78-19.41 161.84-20.14L161.84-20.14L161.84-20.14Q163.89-20.87 166.31-20.87L166.31-20.87L166.31-20.87Q168.73-20.87 170.79-20.14L170.79-20.14L170.79-20.14Q172.84-19.41 174.33-18.05L174.33-18.05L174.33-18.05Q175.83-16.68 176.67-14.71L176.67-14.71L176.67-14.71Q177.51-12.73 177.51-10.22zM171.79-10.22L171.79-10.22L171.79-10.22Q171.79-11.16 171.71-12.14L171.71-12.14L171.71-12.14Q171.62-13.11 171.39-14.03L171.39-14.03L171.39-14.03Q171.17-14.95 170.78-15.76L170.78-15.76L170.78-15.76Q170.39-16.57 169.78-17.17L169.78-17.17L169.78-17.17Q169.17-17.77 168.31-18.12L168.31-18.12L168.31-18.12Q167.46-18.46 166.31-18.46L166.31-18.46L166.31-18.46Q165.15-18.46 164.29-18.12L164.29-18.12L164.29-18.12Q163.42-17.77 162.81-17.18L162.81-17.18L162.81-17.18Q162.20-16.58 161.82-15.77L161.82-15.77L161.82-15.77Q161.44-14.97 161.22-14.05L161.22-14.05L161.22-14.05Q161.00-13.14 160.92-12.16L160.92-12.16L160.92-12.16Q160.83-11.17 160.83-10.22L160.83-10.22L160.83-10.22Q160.83-9.29 160.92-8.31L160.92-8.31L160.92-8.31Q161.00-7.33 161.23-6.42L161.23-6.42L161.23-6.42Q161.45-5.51 161.84-4.70L161.84-4.70L161.84-4.70Q162.23-3.89 162.84-3.29L162.84-3.29L162.84-3.29Q163.45-2.69 164.31-2.34L164.31-2.34L164.31-2.34Q165.16-1.98 166.31-1.98L166.31-1.98L166.31-1.98Q167.43-1.98 168.27-2.34L168.27-2.34L168.27-2.34Q169.10-2.70 169.71-3.32L169.71-3.32L169.71-3.32Q170.32-3.94 170.72-4.75L170.72-4.75L170.72-4.75Q171.13-5.56 171.36-6.48L171.36-6.48L171.36-6.48Q171.59-7.39 171.69-8.35L171.69-8.35L171.69-8.35Q171.79-9.32 171.79-10.22" fill="#420457" stroke="none" stroke-width="none" transform="translate(-87.60000610351562,7.982531941731767)" style="fill: rgb(176, 214, 249);"></path></g></g>
</g>
</g>
<style id="fade-2f243dbf-abc6-4e7d-9773-76b372d05cea" data-anikit="">@keyframes fade-2f243dbf-abc6-4e7d-9773-76b372d05cea
{
  0% {
    animation-timing-function: cubic-bezier(0.2057,0.573,0.3723,0.9184);
    opacity: 1;
  }
  100% {
    opacity: 0;
  }
}</style></svg>