<?xml version="1.0" encoding="utf-8"?>
<svg xmlns="http://www.w3.org/2000/svg" style="margin: auto; background: none; display: block; shape-rendering: auto;" width="280" height="139" preserveAspectRatio="xMidYMid">
<style type="text/css">
  text {
    text-anchor: middle; font-size: 29px; opacity: 0;
  }
</style>
<g style="transform-origin: 140px 69.5px; transform: scale(1.20833);">
<g transform="translate(140,69.5)">
  <g transform="translate(0,0)"><g class="path" style="opacity: 1; transform-origin: -86.455px -1.86392px; animation: 1s linear -0.6s infinite normal forwards running fade-2f243dbf-abc6-4e7d-9773-76b372d05cea;"><path d="M6.56-6.30L6.56 0L1.91 0L1.91-16.88L10.21-16.88L10.21-16.88Q11.38-16.88 12.47-16.60L12.47-16.60L12.47-16.60Q13.56-16.32 14.40-15.73L14.40-15.73L14.40-15.73Q15.23-15.14 15.73-14.20L15.73-14.20L15.73-14.20Q16.23-13.27 16.23-11.93L16.23-11.93L16.23-11.93Q16.23-10.89 15.79-9.97L15.79-9.97L15.79-9.97Q15.35-9.05 14.62-8.33L14.62-8.33L14.62-8.33Q13.89-7.61 12.94-7.13L12.94-7.13L12.94-7.13Q11.99-6.66 10.97-6.50L10.97-6.50L10.97-6.50Q11.43-5.73 11.92-5.04L11.92-5.04L11.92-5.04Q12.42-4.35 12.93-3.74L12.93-3.74L12.93-3.74Q13.44-3.14 13.95-2.63L13.95-2.63L13.95-2.63Q14.45-2.12 14.91-1.70L14.91-1.70L14.91-1.70Q15.98-0.71 17.04 0L17.04 0L11.24 0L11.24 0Q10.54-0.67 9.90-1.61L9.90-1.61L9.90-1.61Q9.36-2.40 8.82-3.58L8.82-3.58L8.82-3.58Q8.27-4.76 7.98-6.30L7.98-6.30L6.56-6.30zM11.51-11.93L11.51-11.93L11.51-11.93Q11.51-13.63 10.68-14.43L10.68-14.43L10.68-14.43Q9.86-15.22 8.20-15.22L8.20-15.22L6.56-15.22L6.56-7.90L8.20-7.90L8.20-7.90Q9.08-7.90 9.71-8.23L9.71-8.23L9.71-8.23Q10.34-8.57 10.73-9.12L10.73-9.12L10.73-9.12Q11.13-9.68 11.32-10.41L11.32-10.41L11.32-10.41Q11.51-11.13 11.51-11.93" fill="#74007a" stroke="none" stroke-width="none" transform="translate(-95.92999267578125,6.576074329723008)" style="fill: rgb(116, 0, 122);"></path></g><g class="path" style="opacity: 1; transform-origin: -68.7643px -0.248925px; animation: 1s linear -0.54s infinite normal forwards running fade-2f243dbf-abc6-4e7d-9773-76b372d05cea;"><path d="M35.30-8.07L35.30-8.07L35.30-7.85L35.30-7.85Q35.27-6.87 35.09-5.81L35.09-5.81L35.09-5.81Q34.91-4.76 34.58-3.70L34.58-3.70L34.58-3.70Q34.25-2.65 33.80-1.62L33.80-1.62L33.80-1.62Q33.34-0.59 32.77 0.36L32.77 0.36L32.77 0.36Q32.20 1.30 31.55 2.13L31.55 2.13L31.55 2.13Q30.89 2.95 30.16 3.59L30.16 3.59L28.42 2.58L28.42 2.58Q28.83 1.89 29.16 1.07L29.16 1.07L29.16 1.07Q29.50 0.26 29.77-0.63L29.77-0.63L29.77-0.63Q30.04-1.52 30.23-2.46L30.23-2.46L30.23-2.46Q30.42-3.40 30.55-4.32L30.55-4.32L30.55-4.32Q30.68-5.25 30.74-6.15L30.74-6.15L30.74-6.15Q30.81-7.04 30.81-7.85L30.81-7.85L30.81-7.85Q30.81-8.48 30.80-9.29L30.80-9.29L30.80-9.29Q30.80-10.09 30.71-10.92L30.71-10.92L30.71-10.92Q30.62-11.75 30.42-12.54L30.42-12.54L30.42-12.54Q30.22-13.34 29.83-13.96L29.83-13.96L29.83-13.96Q29.44-14.58 28.82-14.95L28.82-14.95L28.82-14.95Q28.21-15.33 27.29-15.33L27.29-15.33L27.29-15.33Q26.48-15.33 25.90-15.05L25.90-15.05L25.90-15.05Q25.32-14.78 24.92-14.31L24.92-14.31L24.92-14.31Q24.52-13.85 24.28-13.24L24.28-13.24L24.28-13.24Q24.04-12.63 23.90-11.96L23.90-11.96L23.90-11.96Q23.77-11.29 23.72-10.60L23.72-10.60L23.72-10.60Q23.68-9.91 23.68-9.30L23.68-9.30L23.68-6.04L28.73-6.04L28.73-4.10L23.68-4.10L23.68 0L19.03 0L19.03-8.58L19.03-8.58Q19.03-10.42 19.62-12L19.62-12L19.62-12Q20.20-13.58 21.28-14.75L21.28-14.75L21.28-14.75Q22.35-15.91 23.85-16.58L23.85-16.58L23.85-16.58Q25.36-17.24 27.21-17.24L27.21-17.24L27.21-17.24Q28.46-17.24 29.56-16.88L29.56-16.88L29.56-16.88Q30.66-16.52 31.56-15.90L31.56-15.90L31.56-15.90Q32.46-15.27 33.17-14.41L33.17-14.41L33.17-14.41Q33.88-13.55 34.35-12.53L34.35-12.53L34.35-12.53Q34.83-11.51 35.07-10.37L35.07-10.37L35.07-10.37Q35.32-9.23 35.30-8.07" fill="#74007a" stroke="none" stroke-width="none" transform="translate(-95.92999267578125,6.576074329723008)" style="fill: rgb(165, 63, 170);"></path></g><g class="path" style="opacity: 1; transform-origin: -49.9px -1.86392px; animation: 1s linear -0.48s infinite normal forwards running fade-2f243dbf-abc6-4e7d-9773-76b372d05cea;"><path d="M40.48-11.58L40.48 0L38.32 0L38.32-16.88L41.34-16.88L51.60-5.29L51.60-16.88L53.74-16.88L53.74 0L50.72 0L40.48-11.58" fill="#74007a" stroke="none" stroke-width="none" transform="translate(-95.92999267578125,6.576074329723008)" style="fill: rgb(218, 112, 220);"></path></g><g class="path" style="opacity: 1; transform-origin: -30.4342px -0.248925px; animation: 1s linear -0.42s infinite normal forwards running fade-2f243dbf-abc6-4e7d-9773-76b372d05cea;"><path d="M73.63-8.07L73.63-8.07L73.63-7.85L73.63-7.85Q73.61-6.87 73.42-5.81L73.42-5.81L73.42-5.81Q73.24-4.76 72.91-3.70L72.91-3.70L72.91-3.70Q72.59-2.65 72.13-1.62L72.13-1.62L72.13-1.62Q71.67-0.59 71.10 0.36L71.10 0.36L71.10 0.36Q70.54 1.30 69.88 2.13L69.88 2.13L69.88 2.13Q69.22 2.95 68.50 3.59L68.50 3.59L66.75 2.58L66.75 2.58Q67.16 1.89 67.49 1.07L67.49 1.07L67.49 1.07Q67.83 0.26 68.10-0.63L68.10-0.63L68.10-0.63Q68.37-1.52 68.56-2.46L68.56-2.46L68.56-2.46Q68.75-3.40 68.88-4.32L68.88-4.32L68.88-4.32Q69.01-5.25 69.08-6.15L69.08-6.15L69.08-6.15Q69.14-7.04 69.14-7.85L69.14-7.85L69.14-7.85Q69.14-8.48 69.13-9.29L69.13-9.29L69.13-9.29Q69.13-10.09 69.04-10.92L69.04-10.92L69.04-10.92Q68.95-11.75 68.75-12.54L68.75-12.54L68.75-12.54Q68.55-13.34 68.16-13.96L68.16-13.96L68.16-13.96Q67.77-14.58 67.15-14.95L67.15-14.95L67.15-14.95Q66.54-15.33 65.63-15.33L65.63-15.33L65.63-15.33Q64.82-15.33 64.24-15.05L64.24-15.05L64.24-15.05Q63.66-14.78 63.25-14.31L63.25-14.31L63.25-14.31Q62.85-13.85 62.61-13.24L62.61-13.24L62.61-13.24Q62.37-12.63 62.23-11.96L62.23-11.96L62.23-11.96Q62.10-11.29 62.06-10.60L62.06-10.60L62.06-10.60Q62.02-9.91 62.02-9.30L62.02-9.30L62.02-6.04L67.07-6.04L67.07-4.10L62.02-4.10L62.02 0L57.36 0L57.36-8.58L57.36-8.58Q57.36-10.42 57.95-12L57.95-12L57.95-12Q58.54-13.58 59.61-14.75L59.61-14.75L59.61-14.75Q60.68-15.91 62.19-16.58L62.19-16.58L62.19-16.58Q63.69-17.24 65.54-17.24L65.54-17.24L65.54-17.24Q66.80-17.24 67.89-16.88L67.89-16.88L67.89-16.88Q68.99-16.52 69.89-15.90L69.89-15.90L69.89-15.90Q70.79-15.27 71.50-14.41L71.50-14.41L71.50-14.41Q72.21-13.55 72.69-12.53L72.69-12.53L72.69-12.53Q73.16-11.51 73.41-10.37L73.41-10.37L73.41-10.37Q73.65-9.23 73.63-8.07" fill="#74007a" stroke="none" stroke-width="none" transform="translate(-95.92999267578125,6.576074329723008)" style="fill: rgb(250, 176, 250);"></path></g><g class="path" style="opacity: 1; transform-origin: -4.54425px -0.248925px; animation: 1s linear -0.36s infinite normal forwards running fade-2f243dbf-abc6-4e7d-9773-76b372d05cea;"><path d="M99.52-8.07L99.52-8.07L99.52-7.85L99.52-7.85Q99.49-6.87 99.31-5.81L99.31-5.81L99.31-5.81Q99.13-4.76 98.80-3.70L98.80-3.70L98.80-3.70Q98.47-2.65 98.02-1.62L98.02-1.62L98.02-1.62Q97.56-0.59 96.99 0.36L96.99 0.36L96.99 0.36Q96.42 1.30 95.77 2.13L95.77 2.13L95.77 2.13Q95.11 2.95 94.38 3.59L94.38 3.59L92.64 2.58L92.64 2.58Q93.05 1.89 93.38 1.07L93.38 1.07L93.38 1.07Q93.71 0.26 93.98-0.63L93.98-0.63L93.98-0.63Q94.25-1.52 94.45-2.46L94.45-2.46L94.45-2.46Q94.64-3.40 94.77-4.32L94.77-4.32L94.77-4.32Q94.90-5.25 94.96-6.15L94.96-6.15L94.96-6.15Q95.03-7.04 95.03-7.85L95.03-7.85L95.03-7.85Q95.03-8.48 95.02-9.29L95.02-9.29L95.02-9.29Q95.02-10.09 94.93-10.92L94.93-10.92L94.93-10.92Q94.84-11.75 94.64-12.54L94.64-12.54L94.64-12.54Q94.44-13.34 94.05-13.96L94.05-13.96L94.05-13.96Q93.66-14.58 93.04-14.95L93.04-14.95L93.04-14.95Q92.43-15.33 91.51-15.33L91.51-15.33L91.51-15.33Q90.70-15.33 90.12-15.05L90.12-15.05L90.12-15.05Q89.54-14.78 89.14-14.31L89.14-14.31L89.14-14.31Q88.73-13.85 88.49-13.24L88.49-13.24L88.49-13.24Q88.25-12.63 88.12-11.96L88.12-11.96L88.12-11.96Q87.98-11.29 87.94-10.60L87.94-10.60L87.94-10.60Q87.90-9.91 87.90-9.30L87.90-9.30L87.90-6.04L92.95-6.04L92.95-4.10L87.90-4.10L87.90 0L83.25 0L83.25-8.58L83.25-8.58Q83.25-10.42 83.84-12L83.84-12L83.84-12Q84.42-13.58 85.49-14.75L85.49-14.75L85.49-14.75Q86.57-15.91 88.07-16.58L88.07-16.58L88.07-16.58Q89.58-17.24 91.43-17.24L91.43-17.24L91.43-17.24Q92.68-17.24 93.78-16.88L93.78-16.88L93.78-16.88Q94.88-16.52 95.78-15.90L95.78-15.90L95.78-15.90Q96.68-15.27 97.39-14.41L97.39-14.41L97.39-14.41Q98.10-13.55 98.57-12.53L98.57-12.53L98.57-12.53Q99.05-11.51 99.29-10.37L99.29-10.37L99.29-10.37Q99.54-9.23 99.52-8.07" fill="#74007a" stroke="none" stroke-width="none" transform="translate(-95.92999267578125,6.576074329723008)" style="fill: rgb(255, 233, 255);"></path></g><g class="path" style="opacity: 1; transform-origin: 14.38px -1.86392px; animation: 1s linear -0.3s infinite normal forwards running fade-2f243dbf-abc6-4e7d-9773-76b372d05cea;"><path d="M118.08-4.58L118.08-4.58L118.08-4.58Q118.08-3.87 117.84-3.25L117.84-3.25L117.84-3.25Q117.61-2.63 117.20-2.12L117.20-2.12L117.20-2.12Q116.79-1.61 116.24-1.21L116.24-1.21L116.24-1.21Q115.70-0.81 115.07-0.54L115.07-0.54L115.07-0.54Q114.45-0.27 113.78-0.13L113.78-0.13L113.78-0.13Q113.11 0 112.46 0L112.46 0L102.54 0L102.54-16.88L111.61-16.88L111.61-16.88Q112.21-16.88 112.86-16.79L112.86-16.79L112.86-16.79Q113.52-16.70 114.15-16.51L114.15-16.51L114.15-16.51Q114.77-16.32 115.34-16.02L115.34-16.02L115.34-16.02Q115.91-15.71 116.34-15.28L116.34-15.28L116.34-15.28Q116.77-14.84 117.02-14.26L117.02-14.26L117.02-14.26Q117.27-13.69 117.27-12.95L117.27-12.95L117.27-12.95Q117.27-12.25 116.99-11.67L116.99-11.67L116.99-11.67Q116.71-11.10 116.23-10.65L116.23-10.65L116.23-10.65Q115.76-10.20 115.14-9.85L115.14-9.85L115.14-9.85Q114.53-9.50 113.85-9.25L113.85-9.25L113.85-9.25Q114.70-9.01 115.47-8.63L115.47-8.63L115.47-8.63Q116.24-8.24 116.82-7.68L116.82-7.68L116.82-7.68Q117.40-7.11 117.74-6.35L117.74-6.35L117.74-6.35Q118.08-5.58 118.08-4.58zM112.55-12.54L112.55-12.54L112.55-12.54Q112.55-13.97 111.79-14.63L111.79-14.63L111.79-14.63Q111.04-15.28 109.64-15.28L109.64-15.28L107.19-15.28L107.19-9.81L109.24-9.81L109.24-9.81Q109.88-9.81 110.47-9.97L110.47-9.97L110.47-9.97Q111.07-10.13 111.53-10.46L111.53-10.46L111.53-10.46Q112.00-10.79 112.27-11.31L112.27-11.31L112.27-11.31Q112.55-11.82 112.55-12.54zM113.37-4.88L113.37-4.88L113.37-4.88Q113.37-5.57 113.19-6.17L113.19-6.17L113.19-6.17Q113.02-6.77 112.65-7.21L112.65-7.21L112.65-7.21Q112.29-7.65 111.74-7.90L111.74-7.90L111.74-7.90Q111.20-8.16 110.46-8.16L110.46-8.16L107.19-8.16L107.19-1.64L110.05-1.64L110.05-1.64Q110.77-1.64 111.38-1.88L111.38-1.88L111.38-1.88Q111.98-2.11 112.43-2.53L112.43-2.53L112.43-2.53Q112.88-2.95 113.12-3.55L113.12-3.55L113.12-3.55Q113.37-4.15 113.37-4.88" fill="#74007a" stroke="none" stroke-width="none" transform="translate(-95.92999267578125,6.576074329723008)" style="fill: rgb(116, 0, 122);"></path></g><g class="path" style="opacity: 1; transform-origin: 30.985px -1.86392px; animation: 1s linear -0.24s infinite normal forwards running fade-2f243dbf-abc6-4e7d-9773-76b372d05cea;"><path d="M132.97-2.16L132.97 0L120.86 0L120.86-16.88L132.97-16.88L132.97-14.72L125.51-14.72L125.51-9.50L131.27-9.50L131.27-7.36L125.51-7.36L125.51-2.16L132.97-2.16" fill="#74007a" stroke="none" stroke-width="none" transform="translate(-95.92999267578125,6.576074329723008)" style="fill: rgb(165, 63, 170);"></path></g><g class="path" style="opacity: 1; transform-origin: 48.105px -1.86392px; animation: 1s linear -0.18s infinite normal forwards running fade-2f243dbf-abc6-4e7d-9773-76b372d05cea;"><path d="M152.21-8.46L152.21-8.46L152.21-8.46Q152.21-7.23 151.89-6.12L151.89-6.12L151.89-6.12Q151.56-5.02 150.97-4.08L150.97-4.08L150.97-4.08Q150.38-3.14 149.55-2.38L149.55-2.38L149.55-2.38Q148.73-1.63 147.74-1.10L147.74-1.10L147.74-1.10Q146.75-0.57 145.62-0.29L145.62-0.29L145.62-0.29Q144.49 0 143.30 0L143.30 0L135.86 0L135.86-16.88L143.30-16.88L143.30-16.88Q144.49-16.88 145.62-16.59L145.62-16.59L145.62-16.59Q146.74-16.31 147.73-15.79L147.73-15.79L147.73-15.79Q148.72-15.27 149.55-14.52L149.55-14.52L149.55-14.52Q150.38-13.77 150.97-12.84L150.97-12.84L150.97-12.84Q151.56-11.91 151.89-10.80L151.89-10.80L151.89-10.80Q152.21-9.69 152.21-8.46zM147.49-8.46L147.49-8.46L147.49-8.46Q147.49-9.83 147.16-11.07L147.16-11.07L147.16-11.07Q146.82-12.30 146.12-13.24L146.12-13.24L146.12-13.24Q145.42-14.18 144.33-14.73L144.33-14.73L144.33-14.73Q143.25-15.28 141.74-15.28L141.74-15.28L140.51-15.28L140.51-1.64L141.74-1.64L141.74-1.64Q143.23-1.64 144.31-2.20L144.31-2.20L144.31-2.20Q145.39-2.75 146.10-3.70L146.10-3.70L146.10-3.70Q146.81-4.64 147.15-5.87L147.15-5.87L147.15-5.87Q147.49-7.10 147.49-8.46" fill="#74007a" stroke="none" stroke-width="none" transform="translate(-95.92999267578125,6.576074329723008)" style="fill: rgb(218, 112, 220);"></path></g><g class="path" style="opacity: 1; transform-origin: 67.49px -1.88893px; animation: 1s linear -0.12s infinite normal forwards running fade-2f243dbf-abc6-4e7d-9773-76b372d05cea;"><path d="M172.69-8.46L172.69-8.46L172.69-8.46Q172.69-6.42 171.98-4.79L171.98-4.79L171.98-4.79Q171.28-3.15 170.04-2.02L170.04-2.02L170.04-2.02Q168.80-0.88 167.10-0.27L167.10-0.27L167.10-0.27Q165.40 0.34 163.42 0.34L163.42 0.34L163.42 0.34Q161.44 0.34 159.74-0.27L159.74-0.27L159.74-0.27Q158.04-0.88 156.80-2.02L156.80-2.02L156.80-2.02Q155.55-3.15 154.85-4.79L154.85-4.79L154.85-4.79Q154.15-6.42 154.15-8.46L154.15-8.46L154.15-8.46Q154.15-10.54 154.85-12.17L154.85-12.17L154.85-12.17Q155.54-13.80 156.78-14.94L156.78-14.94L156.78-14.94Q158.02-16.07 159.71-16.67L159.71-16.67L159.71-16.67Q161.41-17.27 163.42-17.27L163.42-17.27L163.42-17.27Q165.42-17.27 167.12-16.67L167.12-16.67L167.12-16.67Q168.82-16.07 170.06-14.94L170.06-14.94L170.06-14.94Q171.29-13.80 171.99-12.17L171.99-12.17L171.99-12.17Q172.69-10.54 172.69-8.46zM167.95-8.46L167.95-8.46L167.95-8.46Q167.95-9.23 167.88-10.04L167.88-10.04L167.88-10.04Q167.81-10.85 167.63-11.61L167.63-11.61L167.63-11.61Q167.44-12.38 167.12-13.04L167.12-13.04L167.12-13.04Q166.79-13.71 166.29-14.21L166.29-14.21L166.29-14.21Q165.79-14.71 165.08-14.99L165.08-14.99L165.08-14.99Q164.37-15.28 163.42-15.28L163.42-15.28L163.42-15.28Q162.46-15.28 161.74-14.99L161.74-14.99L161.74-14.99Q161.03-14.71 160.52-14.21L160.52-14.21L160.52-14.21Q160.02-13.72 159.70-13.05L159.70-13.05L159.70-13.05Q159.39-12.39 159.21-11.63L159.21-11.63L159.21-11.63Q159.02-10.88 158.95-10.06L158.95-10.06L158.95-10.06Q158.88-9.25 158.88-8.46L158.88-8.46L158.88-8.46Q158.88-7.69 158.95-6.88L158.95-6.88L158.95-6.88Q159.02-6.07 159.21-5.31L159.21-5.31L159.21-5.31Q159.40-4.56 159.72-3.89L159.72-3.89L159.72-3.89Q160.04-3.22 160.55-2.72L160.55-2.72L160.55-2.72Q161.05-2.23 161.76-1.93L161.76-1.93L161.76-1.93Q162.47-1.64 163.42-1.64L163.42-1.64L163.42-1.64Q164.34-1.64 165.04-1.94L165.04-1.94L165.04-1.94Q165.73-2.24 166.23-2.75L166.23-2.75L166.23-2.75Q166.73-3.26 167.07-3.93L167.07-3.93L167.07-3.93Q167.40-4.61 167.60-5.36L167.60-5.36L167.60-5.36Q167.79-6.12 167.87-6.91L167.87-6.91L167.87-6.91Q167.95-7.71 167.95-8.46" fill="#74007a" stroke="none" stroke-width="none" transform="translate(-95.92999267578125,6.576074329723008)" style="fill: rgb(250, 176, 250);"></path></g><g class="path" style="opacity: 1; transform-origin: 81.14px -7.35892px; animation: 1s linear -0.06s infinite normal forwards running fade-2f243dbf-abc6-4e7d-9773-76b372d05cea;"><path d="M174.93-16.88L179.21-16.88L178.50-10.99L175.64-10.99L174.93-16.88" fill="#74007a" stroke="none" stroke-width="none" transform="translate(-95.92999267578125,6.576074329723008)" style="fill: rgb(255, 233, 255);"></path></g><g class="path" style="opacity: 1; transform-origin: 91.59px -0.218925px; animation: 1s linear 0s infinite normal forwards running fade-2f243dbf-abc6-4e7d-9773-76b372d05cea;"><path d="M193.77-4.32L193.77-4.32L193.77-4.32Q193.77-3.43 193.51-2.74L193.51-2.74L193.51-2.74Q193.25-2.05 192.81-1.54L192.81-1.54L192.81-1.54Q192.36-1.03 191.75-0.69L191.75-0.69L191.75-0.69Q191.14-0.34 190.45-0.13L190.45-0.13L190.45-0.13Q189.75 0.08 188.99 0.18L188.99 0.18L188.99 0.18Q188.23 0.27 187.48 0.27L187.48 0.27L187.48 0.27Q186.47 0.27 185.70 0.14L185.70 0.14L185.70 0.14Q184.92 0.01 184.22-0.28L184.22-0.28L184.22-0.28Q183.52-0.56 182.82-1.02L182.82-1.02L182.82-1.02Q182.12-1.48 181.27-2.13L181.27-2.13L183.57-4.02L183.57-4.02Q183.89-3.42 184.41-2.94L184.41-2.94L184.41-2.94Q184.93-2.45 185.50-2.10L185.50-2.10L185.50-2.10Q186.06-1.75 186.59-1.56L186.59-1.56L186.59-1.56Q187.11-1.37 187.44-1.37L187.44-1.37L187.44-1.37Q187.71-1.37 188.05-1.39L188.05-1.39L188.05-1.39Q188.39-1.41 188.74-1.46L188.74-1.46L188.74-1.46Q189.09-1.51 189.43-1.62L189.43-1.62L189.43-1.62Q189.77-1.72 190.04-1.90L190.04-1.90L190.04-1.90Q190.30-2.09 190.46-2.36L190.46-2.36L190.46-2.36Q190.62-2.64 190.62-3.02L190.62-3.02L190.62-3.02Q190.62-3.42 190.41-3.72L190.41-3.72L190.41-3.72Q190.21-4.02 189.88-4.24L189.88-4.24L189.88-4.24Q189.55-4.46 189.13-4.62L189.13-4.62L189.13-4.62Q188.71-4.77 188.28-4.89L188.28-4.89L188.28-4.89Q187.85-5.00 187.45-5.09L187.45-5.09L187.45-5.09Q187.05-5.18 186.76-5.26L186.76-5.26L186.76-5.26Q186.22-5.41 185.63-5.57L185.63-5.57L185.63-5.57Q185.03-5.73 184.44-5.94L184.44-5.94L184.44-5.94Q183.86-6.14 183.32-6.42L183.32-6.42L183.32-6.42Q182.79-6.70 182.38-7.10L182.38-7.10L182.38-7.10Q181.98-7.49 181.74-8.02L181.74-8.02L181.74-8.02Q181.50-8.55 181.50-9.27L181.50-9.27L181.50-9.27Q181.50-10.58 182.02-11.47L182.02-11.47L182.02-11.47Q182.54-12.35 183.40-12.88L183.40-12.88L183.40-12.88Q184.25-13.42 185.34-13.64L185.34-13.64L185.34-13.64Q186.43-13.86 187.56-13.86L187.56-13.86L187.56-13.86Q188.33-13.86 189.19-13.71L189.19-13.71L189.19-13.71Q190.04-13.55 190.85-13.24L190.85-13.24L190.85-13.24Q191.66-12.93 192.36-12.48L192.36-12.48L192.36-12.48Q193.07-12.04 193.54-11.46L193.54-11.46L191.23-9.56L191.23-9.56Q190.97-10.27 190.55-10.77L190.55-10.77L190.55-10.77Q190.14-11.27 189.65-11.60L189.65-11.60L189.65-11.60Q189.16-11.92 188.65-12.07L188.65-12.07L188.65-12.07Q188.14-12.22 187.71-12.22L187.71-12.22L187.71-12.22Q187.29-12.22 186.76-12.19L186.76-12.19L186.76-12.19Q186.23-12.15 185.77-11.99L185.77-11.99L185.77-11.99Q185.31-11.82 184.99-11.49L184.99-11.49L184.99-11.49Q184.66-11.16 184.66-10.57L184.66-10.57L184.66-10.57Q184.66-10.15 184.86-9.85L184.86-9.85L184.86-9.85Q185.05-9.55 185.37-9.33L185.37-9.33L185.37-9.33Q185.68-9.12 186.09-8.97L186.09-8.97L186.09-8.97Q186.49-8.82 186.91-8.71L186.91-8.71L186.91-8.71Q187.34-8.60 187.73-8.52L187.73-8.52L187.73-8.52Q188.13-8.44 188.45-8.34L188.45-8.34L188.45-8.34Q188.99-8.19 189.59-8.03L189.59-8.03L189.59-8.03Q190.20-7.88 190.78-7.67L190.78-7.67L190.78-7.67Q191.37-7.46 191.91-7.19L191.91-7.19L191.91-7.19Q192.46-6.91 192.87-6.52L192.87-6.52L192.87-6.52Q193.28-6.12 193.52-5.58L193.52-5.58L193.52-5.58Q193.77-5.05 193.77-4.32" fill="#74007a" stroke="none" stroke-width="none" transform="translate(-95.92999267578125,6.576074329723008)" style="fill: rgb(116, 0, 122);"></path></g></g>
</g>
</g>
<style id="fade-2f243dbf-abc6-4e7d-9773-76b372d05cea" data-anikit="">@keyframes fade-2f243dbf-abc6-4e7d-9773-76b372d05cea
{
  0% {
    animation-timing-function: cubic-bezier(0.2057,0.573,0.3723,0.9184);
    opacity: 1;
  }
  100% {
    opacity: 0;
  }
}</style></svg>